<svg width="24" height="24" viewBox="0 0 24 24" fill="none" xmlns="http://www.w3.org/2000/svg">
<path d="M4.5 16.5V19.5H7.5V22.5H1.5V16.5H4.5ZM18 6V8.39258L16.7275 8.60938L16.1016 8.71582L15.7422 9.24121L15 10.3242V9H9V15H9.06836L8.76172 16.0996L8.49414 17.0605L9.68359 18H6V6H18ZM7.5 1.5V4.5H4.5V7.5H1.5V1.5H7.5ZM22.5 1.5V7.5H19.5V4.5H16.5V1.5H22.5Z" fill="#6393FF"/>
<path d="M22.2289 14.2349L17.6879 19.2417L19.9184 21.0034L17.559 22.3091L15.1293 20.3901L13.2553 23.0991L11.8441 21.9849L10.434 20.8706L12.6361 18.4204L10.2065 16.5015L10.9291 13.9028L13.1606 15.6655L16.9799 10.0884L21.9037 9.25049L22.2289 14.2349ZM19.5004 10.8003L14.9252 17.1001L15.8998 18.0005L20.85 11.7749V10.5747L19.5004 10.8003Z" fill="#6393FF"/>
</svg>
