<svg width="24" height="24" viewBox="0 0 24 24" fill="none" xmlns="http://www.w3.org/2000/svg">
<path d="M4.5 16.5V19.5H7.5V22.5H1.5V16.5H4.5ZM18 6V11.6992C17.61 11.8467 17.2702 12.0372 16.9795 12.2539C16.4718 11.8758 15.8173 11.5695 15 11.4521V9H9V15H9.54297C9.35098 15.981 9.46241 17.0183 9.83594 18H6V6H18ZM7.5 1.5V4.5H4.5V7.5H1.5V1.5H7.5ZM22.5 1.5V7.5H19.5V4.5H16.5V1.5H22.5Z" fill="#6393FF"/>
<path d="M19.698 12.75C23.5083 12.75 23.8618 17.0357 21.324 19.3369C19.5319 20.9619 16.9911 23.2403 16.9802 23.25C16.9802 23.25 16.969 23.2394 16.947 23.2197L19.6502 18.8965L16.8347 16.1064L18.3074 13.0449C18.6721 12.8692 19.129 12.75 19.698 12.75ZM14.2625 12.75C15.1398 12.7501 15.7487 13.0351 16.1658 13.373L14.5496 16.5L17.1218 19.459L15.5105 21.9268C14.6447 21.1482 13.543 20.1598 12.6355 19.3369C9.95572 16.9067 10.4523 12.75 14.2625 12.75Z" fill="#6393FF"/>
</svg>
